<?xml version="1.0" encoding="utf-8"?>
<!-- Generator: Adobe Illustrator 19.0.0, SVG Export Plug-In . SVG Version: 6.00 Build 0)  -->
<svg version="1.1" id="Layer_1" xmlns="http://www.w3.org/2000/svg" xmlns:xlink="http://www.w3.org/1999/xlink" x="0px" y="0px"
	 viewBox="0 0 64 64" style="enable-background:new 0 0 64 64;" xml:space="preserve">
<style type="text/css">
	.st0{fill:url(#XMLID_143_);}
	.st1{fill:#8B98A0;}
	.st2{opacity:0.8;}
	.st3{fill:url(#XMLID_144_);}
	.st4{fill:url(#SVGID_1_);}
	.st5{fill:url(#XMLID_145_);}
	.st6{opacity:0.8;fill:url(#SVGID_2_);}
</style>
<symbol  id="Record_-_Grey" viewBox="-32 -32 64 64">
	<g>
		<g>
			
				<radialGradient id="XMLID_143_" cx="-6.398600e-002" cy="-22.5733" r="32.4844" gradientTransform="matrix(1 0 0 1 -4.000000e-004 0)" gradientUnits="userSpaceOnUse">
				<stop  offset="0" style="stop-color:#E7ECEE"/>
				<stop  offset="1" style="stop-color:#BFC8CD"/>
			</radialGradient>
			<path id="XMLID_129_" class="st0" d="M0-31.5c-17.4,0-31.5,14.1-31.5,31.5c0,17.4,14.1,31.5,31.5,31.5S31.5,17.4,31.5,0
				C31.5-17.4,17.4-31.5,0-31.5z"/>
			<g id="XMLID_125_">
				<path id="XMLID_126_" class="st1" d="M0,31c17.1,0,31-13.9,31-31c0-17.1-13.9-31-31-31S-31-17.1-31,0C-31,17.1-17.1,31,0,31
					 M0,32c-17.7,0-32-14.3-32-32c0-17.7,14.3-32,32-32c17.7,0,32,14.3,32,32C32,17.7,17.7,32,0,32L0,32z"/>
			</g>
		</g>
		<g class="st2">
			<linearGradient id="XMLID_144_" gradientUnits="userSpaceOnUse" x1="-0.9059" y1="11.2476" x2="15.6721" y2="-52.2858">
				<stop  offset="0" style="stop-color:#FFFFFF"/>
				<stop  offset="1" style="stop-color:#B7C6CE"/>
			</linearGradient>
			<path id="XMLID_115_" class="st3" d="M21.4,22.4C26.7,16.8,30,9.3,30,1c0-17.1-13.9-31-31-31c-8.3,0-15.8,3.3-21.4,8.6
				C-16.8-27.3-8.8-31,0-31c17.1,0,31,13.9,31,31C31,8.8,27.3,16.8,21.4,22.4z"/>
		</g>
		<g>
			<g>
				<linearGradient id="SVGID_1_" gradientUnits="userSpaceOnUse" x1="-8.4629" y1="30.7901" x2="2.9756" y2="-10.8245">
					<stop  offset="0" style="stop-color:#FFFAD6"/>
					<stop  offset="1" style="stop-color:#000000"/>
				</linearGradient>
				<path class="st4" d="M-7.6-5.7C3.2,3.7,17.3,12.4,29.4,5.8C26.7,19.6,14.6,30,0,30c-16.5,0-30-13.5-30-30c0-4,0.8-7.8,2.2-11.3
					C-23-12.5-15.6-12.6-7.6-5.7z"/>
			</g>
		</g>
		<g>
			<linearGradient id="XMLID_145_" gradientUnits="userSpaceOnUse" x1="-13.8365" y1="36.3578" x2="7.4508" y2="-25.3739">
				<stop  offset="0" style="stop-color:#FFFFFF"/>
				<stop  offset="1" style="stop-color:#000000"/>
			</linearGradient>
			<path id="XMLID_123_" class="st5" d="M-28-2c0,16.5,13.5,30,30,30c7.8,0,14.8-3,20.2-7.8C16.7,26.2,8.8,30,0,30
				c-16.5,0-30-13.5-30-30c0-8.8,3.8-16.7,9.8-22.2C-25-16.8-28-9.8-28-2z"/>
		</g>
	</g>
	<linearGradient id="SVGID_2_" gradientUnits="userSpaceOnUse" x1="1.001" y1="-16.8565" x2="1.001" y2="7.7314">
		<stop  offset="0" style="stop-color:#FFFFFF"/>
		<stop  offset="1" style="stop-color:#B7C6CE"/>
	</linearGradient>
	<path class="st6" d="M1,13c-7.7,0-14-6.3-14-14c0-7.7,6.3-14,14-14c7.7,0,14,6.3,14,14C15,6.7,8.7,13,1,13z"/>
	<path d="M0,14c-7.7,0-14-6.3-14-14c0-7.7,6.3-14,14-14c7.7,0,14,6.3,14,14C14,7.7,7.7,14,0,14z"/>
</symbol>
<use xlink:href="#Record_-_Grey"  width="64" height="64" id="XMLID_2_" x="-32" y="-32" transform="matrix(1 0 0 -1 32 32)" style="overflow:visible;"/>
</svg>
