<?xml version="1.0" encoding="utf-8"?>
<!-- Generator: Adobe Illustrator 19.0.0, SVG Export Plug-In . SVG Version: 6.00 Build 0)  -->
<svg version="1.1" id="Layer_1" xmlns="http://www.w3.org/2000/svg" xmlns:xlink="http://www.w3.org/1999/xlink" x="0px" y="0px"
	 viewBox="0 0 64 64" style="enable-background:new 0 0 64 64;" xml:space="preserve">
<style type="text/css">
	.st0{fill:url(#XMLID_272_);}
	.st1{fill:#8B98A0;}
	.st2{opacity:0.8;}
	.st3{fill:url(#XMLID_292_);}
	.st4{fill:url(#XMLID_293_);}
	.st5{fill:url(#XMLID_294_);}
	.st6{opacity:0.8;fill:url(#XMLID_295_);}
	.st7{fill:#CF2027;}
</style>
<g id="Record_-_Grey">
	<g id="XMLID_275_">
		<g id="XMLID_285_">
			
				<radialGradient id="XMLID_272_" cx="31.9362" cy="54.5731" r="32.4844" gradientTransform="matrix(1 0 0 1 -4.000000e-004 0)" gradientUnits="userSpaceOnUse">
				<stop  offset="0" style="stop-color:#E7ECEE"/>
				<stop  offset="1" style="stop-color:#BFC8CD"/>
			</radialGradient>
			<path id="XMLID_291_" class="st0" d="M32,63.5C14.6,63.5,0.5,49.4,0.5,32C0.5,14.6,14.6,0.5,32,0.5S63.5,14.6,63.5,32
				C63.5,49.4,49.4,63.5,32,63.5z"/>
			<g id="XMLID_287_">
				<path id="XMLID_288_" class="st1" d="M32,1c17.1,0,31,13.9,31,31c0,17.1-13.9,31-31,31S1,49.1,1,32C1,14.9,14.9,1,32,1 M32,0
					C14.3,0,0,14.3,0,32c0,17.7,14.3,32,32,32c17.7,0,32-14.3,32-32C64,14.3,49.7,0,32,0L32,0z"/>
			</g>
		</g>
		<g id="XMLID_282_" class="st2">
			<linearGradient id="XMLID_292_" gradientUnits="userSpaceOnUse" x1="31.0943" y1="20.7522" x2="47.6722" y2="84.2856">
				<stop  offset="0" style="stop-color:#FFFFFF"/>
				<stop  offset="1" style="stop-color:#B7C6CE"/>
			</linearGradient>
			<path id="XMLID_284_" class="st3" d="M53.4,9.6C58.7,15.2,62,22.7,62,31c0,17.1-13.9,31-31,31c-8.3,0-15.8-3.3-21.4-8.6
				C15.3,59.3,23.2,63,32,63c17.1,0,31-13.9,31-31C63,23.2,59.3,15.2,53.4,9.6z"/>
		</g>
		<g id="XMLID_279_">
			<g id="XMLID_280_">
				<linearGradient id="XMLID_293_" gradientUnits="userSpaceOnUse" x1="23.5372" y1="1.2097" x2="34.9758" y2="42.8243">
					<stop  offset="0" style="stop-color:#FFFAD6"/>
					<stop  offset="1" style="stop-color:#000000"/>
				</linearGradient>
				<path id="XMLID_281_" class="st4" d="M24.4,37.7c10.9-9.4,24.9-18.1,37.1-11.5C58.7,12.4,46.6,2,32,2C15.5,2,2,15.5,2,32
					c0,4,0.8,7.8,2.2,11.3C9,44.5,16.4,44.6,24.4,37.7z"/>
			</g>
		</g>
		<g id="XMLID_276_">
			<linearGradient id="XMLID_294_" gradientUnits="userSpaceOnUse" x1="18.1636" y1="-4.358" x2="39.4509" y2="57.3737">
				<stop  offset="0" style="stop-color:#FFFFFF"/>
				<stop  offset="1" style="stop-color:#000000"/>
			</linearGradient>
			<path id="XMLID_278_" class="st5" d="M4,34C4,17.5,17.5,4,34,4c7.8,0,14.8,3,20.2,7.8C48.7,5.8,40.8,2,32,2C15.5,2,2,15.5,2,32
				c0,8.8,3.8,16.7,9.8,22.2C7,48.8,4,41.8,4,34z"/>
		</g>
	</g>
	<linearGradient id="XMLID_295_" gradientUnits="userSpaceOnUse" x1="33.0012" y1="48.8563" x2="33.0012" y2="24.2684">
		<stop  offset="0" style="stop-color:#FFFFFF"/>
		<stop  offset="1" style="stop-color:#B7C6CE"/>
	</linearGradient>
	<path id="XMLID_274_" class="st6" d="M33,19c-7.7,0-14,6.3-14,14c0,7.7,6.3,14,14,14c7.7,0,14-6.3,14-14C47,25.3,40.7,19,33,19z"/>
	<path id="XMLID_273_" class="st7" d="M32,18c-7.7,0-14,6.3-14,14c0,7.7,6.3,14,14,14c7.7,0,14-6.3,14-14C46,24.3,39.7,18,32,18z"/>
</g>
</svg>
